<mxfile host="app.diagrams.net" modified="2024-05-03T09:38:35.150Z" agent="Mozilla/5.0 (Windows NT 10.0; Win64; x64) AppleWebKit/537.36 (KHTML, like Gecko) Chrome/124.0.0.0 Safari/537.36" etag="0beofZ9DUYsTead2TFFT" version="24.2.8" type="github">
  <diagram id="C5RBs43oDa-KdzZeNtuy" name="Page-1">
    <mxGraphModel dx="1941" dy="1769" grid="1" gridSize="10" guides="1" tooltips="1" connect="1" arrows="1" fold="1" page="1" pageScale="1" pageWidth="827" pageHeight="1169" math="0" shadow="0">
      <root>
        <mxCell id="WIyWlLk6GJQsqaUBKTNV-0" />
        <mxCell id="WIyWlLk6GJQsqaUBKTNV-1" parent="WIyWlLk6GJQsqaUBKTNV-0" />
        <mxCell id="CLyrZ0fL3mQYpZ_oy234-67" style="edgeStyle=orthogonalEdgeStyle;rounded=0;orthogonalLoop=1;jettySize=auto;html=1;entryX=0.5;entryY=0;entryDx=0;entryDy=0;" edge="1" parent="WIyWlLk6GJQsqaUBKTNV-1" source="CLyrZ0fL3mQYpZ_oy234-0" target="CLyrZ0fL3mQYpZ_oy234-66">
          <mxGeometry relative="1" as="geometry">
            <mxPoint x="250" y="20" as="targetPoint" />
          </mxGeometry>
        </mxCell>
        <mxCell id="CLyrZ0fL3mQYpZ_oy234-0" value="Inizio" style="ellipse;whiteSpace=wrap;html=1;" vertex="1" parent="WIyWlLk6GJQsqaUBKTNV-1">
          <mxGeometry x="190" y="-80" width="120" height="80" as="geometry" />
        </mxCell>
        <mxCell id="CLyrZ0fL3mQYpZ_oy234-4" value="" style="edgeStyle=orthogonalEdgeStyle;rounded=0;orthogonalLoop=1;jettySize=auto;html=1;" edge="1" parent="WIyWlLk6GJQsqaUBKTNV-1" source="CLyrZ0fL3mQYpZ_oy234-1" target="CLyrZ0fL3mQYpZ_oy234-3">
          <mxGeometry relative="1" as="geometry" />
        </mxCell>
        <mxCell id="CLyrZ0fL3mQYpZ_oy234-5" style="edgeStyle=orthogonalEdgeStyle;rounded=0;orthogonalLoop=1;jettySize=auto;html=1;" edge="1" parent="WIyWlLk6GJQsqaUBKTNV-1" source="CLyrZ0fL3mQYpZ_oy234-1">
          <mxGeometry relative="1" as="geometry">
            <mxPoint x="370" y="290" as="targetPoint" />
          </mxGeometry>
        </mxCell>
        <mxCell id="CLyrZ0fL3mQYpZ_oy234-1" value="Sei registrato?" style="rhombus;whiteSpace=wrap;html=1;" vertex="1" parent="WIyWlLk6GJQsqaUBKTNV-1">
          <mxGeometry x="210" y="180" width="80" height="80" as="geometry" />
        </mxCell>
        <mxCell id="CLyrZ0fL3mQYpZ_oy234-3" value="Registrazione:&amp;nbsp;&lt;div&gt;Nome&lt;div&gt;Cognome&lt;/div&gt;&lt;div&gt;Mail (Key&lt;/div&gt;&lt;div&gt;Password&lt;/div&gt;&lt;/div&gt;" style="whiteSpace=wrap;html=1;" vertex="1" parent="WIyWlLk6GJQsqaUBKTNV-1">
          <mxGeometry x="80" y="300" width="120" height="80" as="geometry" />
        </mxCell>
        <mxCell id="CLyrZ0fL3mQYpZ_oy234-6" value="NO" style="text;html=1;align=center;verticalAlign=middle;resizable=0;points=[];autosize=1;strokeColor=none;fillColor=none;" vertex="1" parent="WIyWlLk6GJQsqaUBKTNV-1">
          <mxGeometry x="120" y="188" width="40" height="30" as="geometry" />
        </mxCell>
        <mxCell id="CLyrZ0fL3mQYpZ_oy234-7" value="Si" style="text;html=1;align=center;verticalAlign=middle;resizable=0;points=[];autosize=1;strokeColor=none;fillColor=none;" vertex="1" parent="WIyWlLk6GJQsqaUBKTNV-1">
          <mxGeometry x="345" y="178" width="30" height="30" as="geometry" />
        </mxCell>
        <mxCell id="CLyrZ0fL3mQYpZ_oy234-16" style="edgeStyle=orthogonalEdgeStyle;rounded=0;orthogonalLoop=1;jettySize=auto;html=1;entryX=0.5;entryY=0;entryDx=0;entryDy=0;" edge="1" parent="WIyWlLk6GJQsqaUBKTNV-1" source="CLyrZ0fL3mQYpZ_oy234-11" target="CLyrZ0fL3mQYpZ_oy234-13">
          <mxGeometry relative="1" as="geometry" />
        </mxCell>
        <mxCell id="CLyrZ0fL3mQYpZ_oy234-17" style="edgeStyle=orthogonalEdgeStyle;rounded=0;orthogonalLoop=1;jettySize=auto;html=1;entryX=0.5;entryY=0;entryDx=0;entryDy=0;exitX=0.5;exitY=1;exitDx=0;exitDy=0;" edge="1" parent="WIyWlLk6GJQsqaUBKTNV-1" source="CLyrZ0fL3mQYpZ_oy234-11" target="CLyrZ0fL3mQYpZ_oy234-14">
          <mxGeometry relative="1" as="geometry" />
        </mxCell>
        <mxCell id="CLyrZ0fL3mQYpZ_oy234-11" value="Login:&lt;div&gt;Mail:&lt;/div&gt;&lt;div&gt;Password:&lt;/div&gt;" style="rounded=0;whiteSpace=wrap;html=1;" vertex="1" parent="WIyWlLk6GJQsqaUBKTNV-1">
          <mxGeometry x="311" y="300" width="120" height="60" as="geometry" />
        </mxCell>
        <mxCell id="CLyrZ0fL3mQYpZ_oy234-26" style="edgeStyle=orthogonalEdgeStyle;rounded=0;orthogonalLoop=1;jettySize=auto;html=1;entryX=0.5;entryY=0;entryDx=0;entryDy=0;" edge="1" parent="WIyWlLk6GJQsqaUBKTNV-1" source="CLyrZ0fL3mQYpZ_oy234-12" target="CLyrZ0fL3mQYpZ_oy234-24">
          <mxGeometry relative="1" as="geometry">
            <Array as="points">
              <mxPoint x="270" y="740" />
              <mxPoint x="120" y="740" />
            </Array>
          </mxGeometry>
        </mxCell>
        <mxCell id="CLyrZ0fL3mQYpZ_oy234-27" style="edgeStyle=orthogonalEdgeStyle;rounded=0;orthogonalLoop=1;jettySize=auto;html=1;" edge="1" parent="WIyWlLk6GJQsqaUBKTNV-1" source="CLyrZ0fL3mQYpZ_oy234-12" target="CLyrZ0fL3mQYpZ_oy234-22">
          <mxGeometry relative="1" as="geometry">
            <Array as="points">
              <mxPoint x="270" y="740" />
              <mxPoint x="-20" y="740" />
            </Array>
          </mxGeometry>
        </mxCell>
        <mxCell id="CLyrZ0fL3mQYpZ_oy234-28" style="edgeStyle=orthogonalEdgeStyle;rounded=0;orthogonalLoop=1;jettySize=auto;html=1;" edge="1" parent="WIyWlLk6GJQsqaUBKTNV-1" source="CLyrZ0fL3mQYpZ_oy234-12" target="CLyrZ0fL3mQYpZ_oy234-23">
          <mxGeometry relative="1" as="geometry">
            <Array as="points">
              <mxPoint x="270" y="740" />
              <mxPoint x="-160" y="740" />
            </Array>
          </mxGeometry>
        </mxCell>
        <mxCell id="CLyrZ0fL3mQYpZ_oy234-29" style="edgeStyle=orthogonalEdgeStyle;rounded=0;orthogonalLoop=1;jettySize=auto;html=1;" edge="1" parent="WIyWlLk6GJQsqaUBKTNV-1" source="CLyrZ0fL3mQYpZ_oy234-12" target="CLyrZ0fL3mQYpZ_oy234-25">
          <mxGeometry relative="1" as="geometry">
            <Array as="points">
              <mxPoint x="270" y="750" />
              <mxPoint x="270" y="750" />
            </Array>
          </mxGeometry>
        </mxCell>
        <mxCell id="CLyrZ0fL3mQYpZ_oy234-88" style="edgeStyle=orthogonalEdgeStyle;rounded=0;orthogonalLoop=1;jettySize=auto;html=1;entryX=0;entryY=0.5;entryDx=0;entryDy=0;" edge="1" parent="WIyWlLk6GJQsqaUBKTNV-1" source="CLyrZ0fL3mQYpZ_oy234-12" target="CLyrZ0fL3mQYpZ_oy234-83">
          <mxGeometry relative="1" as="geometry">
            <Array as="points">
              <mxPoint x="290" y="570" />
            </Array>
          </mxGeometry>
        </mxCell>
        <mxCell id="CLyrZ0fL3mQYpZ_oy234-12" value="Cliente&lt;div&gt;menu&lt;/div&gt;" style="rounded=0;whiteSpace=wrap;html=1;" vertex="1" parent="WIyWlLk6GJQsqaUBKTNV-1">
          <mxGeometry x="210" y="640" width="120" height="60" as="geometry" />
        </mxCell>
        <mxCell id="CLyrZ0fL3mQYpZ_oy234-36" style="edgeStyle=orthogonalEdgeStyle;rounded=0;orthogonalLoop=1;jettySize=auto;html=1;entryX=0.5;entryY=0;entryDx=0;entryDy=0;" edge="1" parent="WIyWlLk6GJQsqaUBKTNV-1" source="CLyrZ0fL3mQYpZ_oy234-13" target="CLyrZ0fL3mQYpZ_oy234-30">
          <mxGeometry relative="1" as="geometry" />
        </mxCell>
        <mxCell id="CLyrZ0fL3mQYpZ_oy234-37" style="edgeStyle=orthogonalEdgeStyle;rounded=0;orthogonalLoop=1;jettySize=auto;html=1;entryX=0.5;entryY=0;entryDx=0;entryDy=0;" edge="1" parent="WIyWlLk6GJQsqaUBKTNV-1" target="CLyrZ0fL3mQYpZ_oy234-31">
          <mxGeometry relative="1" as="geometry">
            <mxPoint x="560" y="780" as="targetPoint" />
            <mxPoint x="500" y="740" as="sourcePoint" />
            <Array as="points">
              <mxPoint x="560" y="740" />
            </Array>
          </mxGeometry>
        </mxCell>
        <mxCell id="CLyrZ0fL3mQYpZ_oy234-38" style="edgeStyle=orthogonalEdgeStyle;rounded=0;orthogonalLoop=1;jettySize=auto;html=1;" edge="1" parent="WIyWlLk6GJQsqaUBKTNV-1" source="CLyrZ0fL3mQYpZ_oy234-13" target="CLyrZ0fL3mQYpZ_oy234-32">
          <mxGeometry relative="1" as="geometry">
            <Array as="points">
              <mxPoint x="414" y="740" />
              <mxPoint x="710" y="740" />
            </Array>
          </mxGeometry>
        </mxCell>
        <mxCell id="CLyrZ0fL3mQYpZ_oy234-39" style="edgeStyle=orthogonalEdgeStyle;rounded=0;orthogonalLoop=1;jettySize=auto;html=1;entryX=0.5;entryY=0;entryDx=0;entryDy=0;" edge="1" parent="WIyWlLk6GJQsqaUBKTNV-1" source="CLyrZ0fL3mQYpZ_oy234-13" target="CLyrZ0fL3mQYpZ_oy234-33">
          <mxGeometry relative="1" as="geometry">
            <Array as="points">
              <mxPoint x="414" y="740" />
              <mxPoint x="860" y="740" />
            </Array>
          </mxGeometry>
        </mxCell>
        <mxCell id="CLyrZ0fL3mQYpZ_oy234-40" style="edgeStyle=orthogonalEdgeStyle;rounded=0;orthogonalLoop=1;jettySize=auto;html=1;entryX=0.5;entryY=0;entryDx=0;entryDy=0;" edge="1" parent="WIyWlLk6GJQsqaUBKTNV-1" source="CLyrZ0fL3mQYpZ_oy234-13" target="CLyrZ0fL3mQYpZ_oy234-35">
          <mxGeometry relative="1" as="geometry">
            <Array as="points">
              <mxPoint x="414" y="740" />
              <mxPoint x="1010" y="740" />
            </Array>
          </mxGeometry>
        </mxCell>
        <mxCell id="CLyrZ0fL3mQYpZ_oy234-42" style="edgeStyle=orthogonalEdgeStyle;rounded=0;orthogonalLoop=1;jettySize=auto;html=1;" edge="1" parent="WIyWlLk6GJQsqaUBKTNV-1" source="CLyrZ0fL3mQYpZ_oy234-13">
          <mxGeometry relative="1" as="geometry">
            <mxPoint x="270" y="740" as="targetPoint" />
            <Array as="points">
              <mxPoint x="414" y="740" />
            </Array>
          </mxGeometry>
        </mxCell>
        <mxCell id="CLyrZ0fL3mQYpZ_oy234-89" style="edgeStyle=orthogonalEdgeStyle;rounded=0;orthogonalLoop=1;jettySize=auto;html=1;entryX=0;entryY=0.5;entryDx=0;entryDy=0;" edge="1" parent="WIyWlLk6GJQsqaUBKTNV-1" source="CLyrZ0fL3mQYpZ_oy234-13" target="CLyrZ0fL3mQYpZ_oy234-83">
          <mxGeometry relative="1" as="geometry">
            <Array as="points">
              <mxPoint x="440" y="570" />
            </Array>
          </mxGeometry>
        </mxCell>
        <mxCell id="CLyrZ0fL3mQYpZ_oy234-13" value="Manager&lt;div&gt;menu&lt;/div&gt;" style="rounded=0;whiteSpace=wrap;html=1;" vertex="1" parent="WIyWlLk6GJQsqaUBKTNV-1">
          <mxGeometry x="354" y="640" width="120" height="60" as="geometry" />
        </mxCell>
        <mxCell id="CLyrZ0fL3mQYpZ_oy234-84" style="edgeStyle=orthogonalEdgeStyle;rounded=0;orthogonalLoop=1;jettySize=auto;html=1;entryX=0.5;entryY=1;entryDx=0;entryDy=0;" edge="1" parent="WIyWlLk6GJQsqaUBKTNV-1" source="CLyrZ0fL3mQYpZ_oy234-14" target="CLyrZ0fL3mQYpZ_oy234-83">
          <mxGeometry relative="1" as="geometry">
            <Array as="points">
              <mxPoint x="600" y="710" />
              <mxPoint x="700" y="710" />
            </Array>
          </mxGeometry>
        </mxCell>
        <mxCell id="CLyrZ0fL3mQYpZ_oy234-14" value="BATMAN&lt;div&gt;menu&lt;/div&gt;" style="rounded=0;whiteSpace=wrap;html=1;" vertex="1" parent="WIyWlLk6GJQsqaUBKTNV-1">
          <mxGeometry x="540" y="640" width="120" height="60" as="geometry" />
        </mxCell>
        <mxCell id="CLyrZ0fL3mQYpZ_oy234-15" style="edgeStyle=orthogonalEdgeStyle;rounded=0;orthogonalLoop=1;jettySize=auto;html=1;entryX=0.442;entryY=0.017;entryDx=0;entryDy=0;entryPerimeter=0;" edge="1" parent="WIyWlLk6GJQsqaUBKTNV-1" source="CLyrZ0fL3mQYpZ_oy234-11" target="CLyrZ0fL3mQYpZ_oy234-12">
          <mxGeometry relative="1" as="geometry" />
        </mxCell>
        <mxCell id="CLyrZ0fL3mQYpZ_oy234-53" style="edgeStyle=orthogonalEdgeStyle;rounded=0;orthogonalLoop=1;jettySize=auto;html=1;" edge="1" parent="WIyWlLk6GJQsqaUBKTNV-1" source="CLyrZ0fL3mQYpZ_oy234-22">
          <mxGeometry relative="1" as="geometry">
            <mxPoint x="-20" y="960" as="targetPoint" />
          </mxGeometry>
        </mxCell>
        <mxCell id="CLyrZ0fL3mQYpZ_oy234-22" value="Vedi Lista Auto&lt;div&gt;Disponibili&lt;/div&gt;" style="rounded=0;whiteSpace=wrap;html=1;" vertex="1" parent="WIyWlLk6GJQsqaUBKTNV-1">
          <mxGeometry x="-80" y="785" width="120" height="60" as="geometry" />
        </mxCell>
        <mxCell id="CLyrZ0fL3mQYpZ_oy234-56" style="edgeStyle=orthogonalEdgeStyle;rounded=0;orthogonalLoop=1;jettySize=auto;html=1;" edge="1" parent="WIyWlLk6GJQsqaUBKTNV-1" source="CLyrZ0fL3mQYpZ_oy234-23">
          <mxGeometry relative="1" as="geometry">
            <mxPoint x="-160" y="960" as="targetPoint" />
          </mxGeometry>
        </mxCell>
        <mxCell id="CLyrZ0fL3mQYpZ_oy234-23" value="Cerca Auto Disponibili per Costo" style="rounded=0;whiteSpace=wrap;html=1;" vertex="1" parent="WIyWlLk6GJQsqaUBKTNV-1">
          <mxGeometry x="-220" y="785" width="120" height="60" as="geometry" />
        </mxCell>
        <mxCell id="CLyrZ0fL3mQYpZ_oy234-55" style="edgeStyle=orthogonalEdgeStyle;rounded=0;orthogonalLoop=1;jettySize=auto;html=1;" edge="1" parent="WIyWlLk6GJQsqaUBKTNV-1" source="CLyrZ0fL3mQYpZ_oy234-24">
          <mxGeometry relative="1" as="geometry">
            <mxPoint x="120" y="960" as="targetPoint" />
          </mxGeometry>
        </mxCell>
        <mxCell id="CLyrZ0fL3mQYpZ_oy234-24" value="Cerca Auto disponibili per nome+modello" style="rounded=0;whiteSpace=wrap;html=1;" vertex="1" parent="WIyWlLk6GJQsqaUBKTNV-1">
          <mxGeometry x="60" y="785" width="120" height="60" as="geometry" />
        </mxCell>
        <mxCell id="CLyrZ0fL3mQYpZ_oy234-81" style="edgeStyle=orthogonalEdgeStyle;rounded=0;orthogonalLoop=1;jettySize=auto;html=1;" edge="1" parent="WIyWlLk6GJQsqaUBKTNV-1" source="CLyrZ0fL3mQYpZ_oy234-25" target="CLyrZ0fL3mQYpZ_oy234-80">
          <mxGeometry relative="1" as="geometry" />
        </mxCell>
        <mxCell id="CLyrZ0fL3mQYpZ_oy234-25" value="Noleggia Auto" style="rounded=0;whiteSpace=wrap;html=1;" vertex="1" parent="WIyWlLk6GJQsqaUBKTNV-1">
          <mxGeometry x="210" y="785" width="120" height="60" as="geometry" />
        </mxCell>
        <mxCell id="CLyrZ0fL3mQYpZ_oy234-71" style="edgeStyle=orthogonalEdgeStyle;rounded=0;orthogonalLoop=1;jettySize=auto;html=1;entryX=0.5;entryY=0;entryDx=0;entryDy=0;" edge="1" parent="WIyWlLk6GJQsqaUBKTNV-1" source="CLyrZ0fL3mQYpZ_oy234-30" target="CLyrZ0fL3mQYpZ_oy234-70">
          <mxGeometry relative="1" as="geometry" />
        </mxCell>
        <mxCell id="CLyrZ0fL3mQYpZ_oy234-30" value="Aggiungi Auto" style="rounded=0;whiteSpace=wrap;html=1;" vertex="1" parent="WIyWlLk6GJQsqaUBKTNV-1">
          <mxGeometry x="354" y="785" width="120" height="60" as="geometry" />
        </mxCell>
        <mxCell id="CLyrZ0fL3mQYpZ_oy234-59" style="edgeStyle=orthogonalEdgeStyle;rounded=0;orthogonalLoop=1;jettySize=auto;html=1;" edge="1" parent="WIyWlLk6GJQsqaUBKTNV-1" source="CLyrZ0fL3mQYpZ_oy234-31">
          <mxGeometry relative="1" as="geometry">
            <mxPoint x="560" y="930" as="targetPoint" />
          </mxGeometry>
        </mxCell>
        <mxCell id="CLyrZ0fL3mQYpZ_oy234-31" value="Rimuovi Auto" style="rounded=0;whiteSpace=wrap;html=1;" vertex="1" parent="WIyWlLk6GJQsqaUBKTNV-1">
          <mxGeometry x="500" y="785" width="120" height="60" as="geometry" />
        </mxCell>
        <mxCell id="CLyrZ0fL3mQYpZ_oy234-60" style="edgeStyle=orthogonalEdgeStyle;rounded=0;orthogonalLoop=1;jettySize=auto;html=1;entryX=1;entryY=0.5;entryDx=0;entryDy=0;" edge="1" parent="WIyWlLk6GJQsqaUBKTNV-1" source="CLyrZ0fL3mQYpZ_oy234-32" target="CLyrZ0fL3mQYpZ_oy234-70">
          <mxGeometry relative="1" as="geometry">
            <mxPoint x="710" y="880" as="targetPoint" />
            <Array as="points">
              <mxPoint x="710" y="930" />
            </Array>
          </mxGeometry>
        </mxCell>
        <mxCell id="CLyrZ0fL3mQYpZ_oy234-32" value="Cambia Stato" style="rounded=0;whiteSpace=wrap;html=1;" vertex="1" parent="WIyWlLk6GJQsqaUBKTNV-1">
          <mxGeometry x="650" y="785" width="120" height="60" as="geometry" />
        </mxCell>
        <mxCell id="CLyrZ0fL3mQYpZ_oy234-73" style="edgeStyle=orthogonalEdgeStyle;rounded=0;orthogonalLoop=1;jettySize=auto;html=1;entryX=0;entryY=0.5;entryDx=0;entryDy=0;" edge="1" parent="WIyWlLk6GJQsqaUBKTNV-1" source="CLyrZ0fL3mQYpZ_oy234-33" target="CLyrZ0fL3mQYpZ_oy234-13">
          <mxGeometry relative="1" as="geometry">
            <Array as="points">
              <mxPoint x="860" y="1010" />
              <mxPoint x="334" y="1010" />
              <mxPoint x="334" y="670" />
            </Array>
          </mxGeometry>
        </mxCell>
        <mxCell id="CLyrZ0fL3mQYpZ_oy234-33" value="Lista Clienti" style="rounded=0;whiteSpace=wrap;html=1;" vertex="1" parent="WIyWlLk6GJQsqaUBKTNV-1">
          <mxGeometry x="800" y="785" width="120" height="60" as="geometry" />
        </mxCell>
        <mxCell id="CLyrZ0fL3mQYpZ_oy234-35" value="&amp;nbsp;Lista Auto" style="rounded=0;whiteSpace=wrap;html=1;" vertex="1" parent="WIyWlLk6GJQsqaUBKTNV-1">
          <mxGeometry x="950" y="785" width="120" height="60" as="geometry" />
        </mxCell>
        <mxCell id="CLyrZ0fL3mQYpZ_oy234-63" style="edgeStyle=orthogonalEdgeStyle;rounded=0;orthogonalLoop=1;jettySize=auto;html=1;entryX=1;entryY=0.5;entryDx=0;entryDy=0;" edge="1" parent="WIyWlLk6GJQsqaUBKTNV-1" source="CLyrZ0fL3mQYpZ_oy234-45" target="CLyrZ0fL3mQYpZ_oy234-14">
          <mxGeometry relative="1" as="geometry">
            <mxPoint x="1160" y="880" as="targetPoint" />
            <Array as="points">
              <mxPoint x="1160" y="863" />
              <mxPoint x="1161" y="863" />
              <mxPoint x="1161" y="1030" />
              <mxPoint x="1550" y="1030" />
              <mxPoint x="1550" y="670" />
            </Array>
          </mxGeometry>
        </mxCell>
        <mxCell id="CLyrZ0fL3mQYpZ_oy234-45" value="Lista Batmobili" style="rounded=0;whiteSpace=wrap;html=1;" vertex="1" parent="WIyWlLk6GJQsqaUBKTNV-1">
          <mxGeometry x="1100" y="785" width="120" height="60" as="geometry" />
        </mxCell>
        <mxCell id="CLyrZ0fL3mQYpZ_oy234-64" style="edgeStyle=orthogonalEdgeStyle;rounded=0;orthogonalLoop=1;jettySize=auto;html=1;entryX=0;entryY=0.5;entryDx=0;entryDy=0;" edge="1" parent="WIyWlLk6GJQsqaUBKTNV-1" source="CLyrZ0fL3mQYpZ_oy234-46" target="CLyrZ0fL3mQYpZ_oy234-77">
          <mxGeometry relative="1" as="geometry">
            <mxPoint x="1310" y="880" as="targetPoint" />
            <Array as="points">
              <mxPoint x="1310" y="950" />
            </Array>
          </mxGeometry>
        </mxCell>
        <mxCell id="CLyrZ0fL3mQYpZ_oy234-46" value="Aggiungi Batmobili" style="rounded=0;whiteSpace=wrap;html=1;" vertex="1" parent="WIyWlLk6GJQsqaUBKTNV-1">
          <mxGeometry x="1250" y="785" width="120" height="60" as="geometry" />
        </mxCell>
        <mxCell id="CLyrZ0fL3mQYpZ_oy234-78" style="edgeStyle=orthogonalEdgeStyle;rounded=0;orthogonalLoop=1;jettySize=auto;html=1;" edge="1" parent="WIyWlLk6GJQsqaUBKTNV-1" source="CLyrZ0fL3mQYpZ_oy234-47" target="CLyrZ0fL3mQYpZ_oy234-77">
          <mxGeometry relative="1" as="geometry" />
        </mxCell>
        <mxCell id="CLyrZ0fL3mQYpZ_oy234-47" value="Rimuovi Batmobili" style="rounded=0;whiteSpace=wrap;html=1;" vertex="1" parent="WIyWlLk6GJQsqaUBKTNV-1">
          <mxGeometry x="1400" y="785" width="120" height="60" as="geometry" />
        </mxCell>
        <mxCell id="CLyrZ0fL3mQYpZ_oy234-69" style="edgeStyle=orthogonalEdgeStyle;rounded=0;orthogonalLoop=1;jettySize=auto;html=1;entryX=0.5;entryY=0;entryDx=0;entryDy=0;" edge="1" parent="WIyWlLk6GJQsqaUBKTNV-1" source="CLyrZ0fL3mQYpZ_oy234-66" target="CLyrZ0fL3mQYpZ_oy234-1">
          <mxGeometry relative="1" as="geometry">
            <mxPoint x="250" y="160" as="targetPoint" />
            <Array as="points">
              <mxPoint x="250" y="130" />
              <mxPoint x="251" y="130" />
            </Array>
          </mxGeometry>
        </mxCell>
        <mxCell id="CLyrZ0fL3mQYpZ_oy234-66" value="Carica liste" style="shape=parallelogram;perimeter=parallelogramPerimeter;whiteSpace=wrap;html=1;fixedSize=1;" vertex="1" parent="WIyWlLk6GJQsqaUBKTNV-1">
          <mxGeometry x="190" y="40" width="120" height="60" as="geometry" />
        </mxCell>
        <mxCell id="CLyrZ0fL3mQYpZ_oy234-70" value="Aggiorna lista Auto" style="shape=parallelogram;perimeter=parallelogramPerimeter;whiteSpace=wrap;html=1;fixedSize=1;" vertex="1" parent="WIyWlLk6GJQsqaUBKTNV-1">
          <mxGeometry x="354" y="900" width="120" height="60" as="geometry" />
        </mxCell>
        <mxCell id="CLyrZ0fL3mQYpZ_oy234-76" style="edgeStyle=orthogonalEdgeStyle;rounded=0;orthogonalLoop=1;jettySize=auto;html=1;entryX=0;entryY=0.5;entryDx=0;entryDy=0;" edge="1" parent="WIyWlLk6GJQsqaUBKTNV-1" source="CLyrZ0fL3mQYpZ_oy234-74" target="CLyrZ0fL3mQYpZ_oy234-66">
          <mxGeometry relative="1" as="geometry" />
        </mxCell>
        <mxCell id="CLyrZ0fL3mQYpZ_oy234-74" value="Aggiorna Lista&lt;div&gt;Clienti&lt;/div&gt;" style="shape=parallelogram;perimeter=parallelogramPerimeter;whiteSpace=wrap;html=1;fixedSize=1;" vertex="1" parent="WIyWlLk6GJQsqaUBKTNV-1">
          <mxGeometry x="-10" y="40" width="120" height="60" as="geometry" />
        </mxCell>
        <mxCell id="CLyrZ0fL3mQYpZ_oy234-75" style="edgeStyle=orthogonalEdgeStyle;rounded=0;orthogonalLoop=1;jettySize=auto;html=1;entryX=0.392;entryY=0.967;entryDx=0;entryDy=0;entryPerimeter=0;" edge="1" parent="WIyWlLk6GJQsqaUBKTNV-1" source="CLyrZ0fL3mQYpZ_oy234-3" target="CLyrZ0fL3mQYpZ_oy234-74">
          <mxGeometry relative="1" as="geometry">
            <Array as="points">
              <mxPoint x="140" y="410" />
              <mxPoint x="40" y="410" />
              <mxPoint x="40" y="98" />
            </Array>
          </mxGeometry>
        </mxCell>
        <mxCell id="CLyrZ0fL3mQYpZ_oy234-79" style="edgeStyle=orthogonalEdgeStyle;rounded=0;orthogonalLoop=1;jettySize=auto;html=1;exitX=0.5;exitY=1;exitDx=0;exitDy=0;" edge="1" parent="WIyWlLk6GJQsqaUBKTNV-1" source="CLyrZ0fL3mQYpZ_oy234-77">
          <mxGeometry relative="1" as="geometry">
            <mxPoint x="1400" y="1030" as="targetPoint" />
          </mxGeometry>
        </mxCell>
        <mxCell id="CLyrZ0fL3mQYpZ_oy234-77" value="Aggiorna lista&lt;div&gt;Batmobili&lt;/div&gt;" style="shape=parallelogram;perimeter=parallelogramPerimeter;whiteSpace=wrap;html=1;fixedSize=1;" vertex="1" parent="WIyWlLk6GJQsqaUBKTNV-1">
          <mxGeometry x="1340" y="920" width="120" height="60" as="geometry" />
        </mxCell>
        <mxCell id="CLyrZ0fL3mQYpZ_oy234-82" style="edgeStyle=orthogonalEdgeStyle;rounded=0;orthogonalLoop=1;jettySize=auto;html=1;entryX=0;entryY=0.5;entryDx=0;entryDy=0;" edge="1" parent="WIyWlLk6GJQsqaUBKTNV-1" source="CLyrZ0fL3mQYpZ_oy234-80" target="CLyrZ0fL3mQYpZ_oy234-12">
          <mxGeometry relative="1" as="geometry">
            <Array as="points">
              <mxPoint x="-250" y="960" />
              <mxPoint x="-250" y="670" />
            </Array>
          </mxGeometry>
        </mxCell>
        <mxCell id="CLyrZ0fL3mQYpZ_oy234-80" value="Aggiorna lista Auto" style="shape=parallelogram;perimeter=parallelogramPerimeter;whiteSpace=wrap;html=1;fixedSize=1;" vertex="1" parent="WIyWlLk6GJQsqaUBKTNV-1">
          <mxGeometry x="191" y="930" width="120" height="60" as="geometry" />
        </mxCell>
        <mxCell id="CLyrZ0fL3mQYpZ_oy234-91" style="edgeStyle=orthogonalEdgeStyle;rounded=0;orthogonalLoop=1;jettySize=auto;html=1;entryX=0;entryY=0.5;entryDx=0;entryDy=0;" edge="1" parent="WIyWlLk6GJQsqaUBKTNV-1" source="CLyrZ0fL3mQYpZ_oy234-83" target="CLyrZ0fL3mQYpZ_oy234-90">
          <mxGeometry relative="1" as="geometry" />
        </mxCell>
        <mxCell id="CLyrZ0fL3mQYpZ_oy234-83" value="Esci" style="rounded=0;whiteSpace=wrap;html=1;" vertex="1" parent="WIyWlLk6GJQsqaUBKTNV-1">
          <mxGeometry x="640" y="540" width="120" height="60" as="geometry" />
        </mxCell>
        <mxCell id="CLyrZ0fL3mQYpZ_oy234-90" value="Fine Programma" style="ellipse;whiteSpace=wrap;html=1;" vertex="1" parent="WIyWlLk6GJQsqaUBKTNV-1">
          <mxGeometry x="810" y="530" width="120" height="80" as="geometry" />
        </mxCell>
      </root>
    </mxGraphModel>
  </diagram>
</mxfile>
